<svg width="14" height="14" viewBox="0 0 14 14" fill="none" xmlns="http://www.w3.org/2000/svg">
<path d="M10 10L13 13M1 6.14286C1 6.81823 1.13302 7.48698 1.39148 8.11094C1.64993 8.7349 2.02875 9.30185 2.50631 9.77941C2.98387 10.257 3.55081 10.6358 4.17477 10.8942C4.79873 11.1527 5.46749 11.2857 6.14286 11.2857C6.81823 11.2857 7.48698 11.1527 8.11094 10.8942C8.7349 10.6358 9.30185 10.257 9.77941 9.77941C10.257 9.30185 10.6358 8.7349 10.8942 8.11094C11.1527 7.48698 11.2857 6.81823 11.2857 6.14286C11.2857 4.77889 10.7439 3.47078 9.77941 2.50631C8.81493 1.54184 7.50683 1 6.14286 1C4.77889 1 3.47078 1.54184 2.50631 2.50631C1.54184 3.47078 1 4.77889 1 6.14286V6.14286Z" stroke="#0D0D0D" stroke-width="1.5" stroke-linecap="round" stroke-linejoin="round"/>
</svg>
